HIERARCHY
ROOT Hips
{
  OFFSET -54.2603 97.9063 45.3313
  CHANNELS 6 Xposition Yposition Zposition Zrotation Xrotation Yrotation
  JOINT ToSpine
  {
    OFFSET -2.69724 7.43032 -0.144315
    CHANNELS 3 Zrotation Xrotation Yrotation
    JOINT Spine
    {
      OFFSET -0.0310711 10.7595 1.96963
      CHANNELS 3 Zrotation Xrotation Yrotation
      JOINT Spine1
      {
        OFFSET 13.1342 3.43533 0.764692
        CHANNELS 3 Zrotation Xrotation Yrotation
        JOINT Neck
        {
          OFFSET 29.8703 7.82586 -0.130764
          CHANNELS 3 Zrotation Xrotation Yrotation
          JOINT Head
          {
            OFFSET 9.52751 0.295786 -0.907742
            CHANNELS 3 Zrotation Xrotation Yrotation
            End Site
            {
              OFFSET 16.4037 0.713936 2.7358
            }
          }
        }
        JOINT LeftShoulder
        {
          OFFSET 27.5574 4.95586 2.47156
          CHANNELS 3 Zrotation Xrotation Yrotation
          JOINT LeftArm
          {
            OFFSET 1.20734 -0.998971 20.1238
            CHANNELS 3 Zrotation Xrotation Yrotation
            JOINT LeftForeArm
            {
              OFFSET 26.8049 -0.0536703 -0.155908
              CHANNELS 3 Zrotation Xrotation Yrotation
              JOINT LeftHand
              {
                OFFSET 26.6817 0 0.320147
                CHANNELS 3 Zrotation Xrotation Yrotation
                End Site
                {
                  OFFSET 18.6119 0 0.382219
                }
              }
            }
          }
        }
        JOINT RightShoulder
        {
          OFFSET 27.5927 4.71444 -2.65209
          CHANNELS 3 Zrotation Xrotation Yrotation
          JOINT RightArm
          {
            OFFSET 2.83739 -1.17114 -18.7564
            CHANNELS 3 Zrotation Xrotation Yrotation
            JOINT RightForeArm
            {
              OFFSET 28.839 -0.0548439 1.22491
              CHANNELS 3 Zrotation Xrotation Yrotation
              JOINT RightHand
              {
                OFFSET 26.5114 0 -0.101894
                CHANNELS 3 Zrotation Xrotation Yrotation
                End Site
                {
                  OFFSET 18.2168 0 0
                }
              }
            }
          }
        }
      }
    }
  }
  JOINT LeftUpLeg
  {
    OFFSET -4.76168 -1.9167 -10.2353
    CHANNELS 3 Zrotation Xrotation Yrotation
    JOINT LeftLeg
    {
      OFFSET 2.55951 -42.0585 -8.02213
      CHANNELS 3 Zrotation Xrotation Yrotation
      JOINT LeftFoot
      {
        OFFSET 3.16357 -42.5282 -3.95426
        CHANNELS 3 Zrotation Xrotation Yrotation
        JOINT LeftToeBase
        {
          OFFSET 0.346054 -6.02161 12.8035
          CHANNELS 3 Zrotation Xrotation Yrotation
          End Site
          {
            OFFSET 0.134235 -1.35082 5.13018
          }
        }
      }
    }
  }
  JOINT RightUpLeg
  {
    OFFSET -4.94151 -1.41743 10.6446
    CHANNELS 3 Zrotation Xrotation Yrotation
    JOINT RightLeg
    {
      OFFSET -2.56294 -42.0364 -7.94377
      CHANNELS 3 Zrotation Xrotation Yrotation
      JOINT RightFoot
      {
        OFFSET -3.0952 -42.555 -4.02241
        CHANNELS 3 Zrotation Xrotation Yrotation
        JOINT RightToeBase
        {
          OFFSET -0.0828122 -6.13587 12.8035
          CHANNELS 3 Zrotation Xrotation Yrotation
          End Site
          {
            OFFSET -0.131328 -1.35082 5.13018
          }
        }
      }
    }
  }
}
MOTION
Frames:	20
Frame Time:	0.0333333
-54.3398 97.8918 45.9262 -7.11504 -69.4324 -97.6973 -70.1915 0 88.8779 62.7087 68.9756 26.8818 5.76417 20.6116 1.10788 -159.228 20.4346 177.703 -160.777 59.8008 -176.064 -0.0766743 -14.8404 -34.8412 -63.3528 43.9987 -95.6452 8.26678 18.0796 -27.6786 0.420957 0.00057553 0.35866 -1.94085 6.37946 44.8719 -64.4412 -32.9595 97.578 0.343716 -13.5138 22.4963 0.58676 0.000331038 0.0646652 -55.3551 2.16703 99.5408 -1.42177 18.7461 -6.72001 3.58782 -5.5235 -0.81327 0.543772 -1.48054 0.691985 -56.1585 -1.17998 80.5605 2.29022 13.9999 6.94402 -9.55047 -0.474083 1.38247 1.89102 -7.56799 -10.1535 
-54.3371 97.8971 45.9051 -6.87243 -69.4763 -97.3696 -70.1915 0 88.8779 62.9402 68.9301 26.6489 5.76354 20.5103 1.16908 -159.282 20.379 177.755 -160.651 59.7366 -176.13 -0.0512767 -14.742 -34.806 -63.4279 44.0434 -95.6511 8.2823 18.1277 -27.6749 0.420957 0.00057553 0.35866 -1.94617 6.38608 44.9203 -64.4506 -32.8504 97.6401 0.151426 -13.3734 22.4002 0.58676 0.000331038 0.0646652 -55.3053 2.24522 99.5538 -1.39038 18.9161 -6.87697 3.38231 -5.87313 -0.813857 0.251316 -0.883498 0.761661 -56.2584 -1.11982 80.5483 2.34045 13.9077 6.89756 -9.72231 -0.42864 1.40429 1.90231 -7.55798 -10.2727 
-54.34 97.875 45.9391 -6.92363 -69.3653 -97.445 -70.1915 0 88.8779 62.0806 68.8165 27.4987 6.00881 20.5418 1.14736 -159.272 20.3308 177.59 -160.421 59.6589 -176.439 -0.0719449 -14.8151 -34.8738 -63.4926 44.0184 -95.6182 8.27715 18.2009 -27.6427 0.420957 0.00057553 0.35866 -1.93195 6.39691 44.6555 -64.7231 -33.0943 97.5727 0.308442 -13.7197 22.425 0.58676 0.000331038 0.0646652 -55.1311 2.27355 99.5443 -1.42544 19.0624 -6.45377 3.47927 -6.03584 -0.829763 0.317136 -0.709019 -0.0107723 -56.2116 -1.10751 80.5718 2.3556 13.7833 6.80818 -9.84299 -0.520787 1.41887 1.9126 -7.53906 -10.3855 
-54.3514 97.8866 45.9191 -6.95987 -69.3954 -97.4814 -70.1915 0 88.8779 62.2527 68.8685 27.2826 5.92663 20.5555 1.17721 -159.22 20.3465 177.549 -160.196 59.6531 -176.605 -0.0810075 -14.8502 -34.8861 -63.5252 43.943 -95.5522 8.21567 18.1007 -27.6217 0.420957 0.00057553 0.35866 -1.92928 6.35009 44.8375 -64.7 -32.9964 97.5641 0.312896 -13.7912 22.4173 0.58676 0.000331038 0.0646652 -55.1774 2.25382 99.5233 -1.41744 18.9846 -6.27234 3.88376 -5.73293 -0.846021 0.629017 -1.26656 -0.324736 -56.184 -1.10805 80.5775 2.33229 13.878 6.75114 -9.77835 -0.530178 1.41066 1.90102 -7.49145 -10.2821 
-54.3279 97.8933 45.908 -6.88695 -69.4485 -97.4054 -70.1915 0 88.8779 62.5336 68.8885 26.9443 5.82766 20.5018 1.26946 -159.335 20.3253 177.858 -160.631 59.6851 -176.094 -0.0761678 -14.8011 -35.0487 -63.5226 43.8788 -95.479 8.20534 17.9998 -27.6495 0.420957 0.00057553 0.35866 -1.9512 6.43019 44.7867 -64.6847 -32.977 97.5311 0.290842 -13.6244 22.4345 0.58676 0.000331038 0.0646652 -55.2641 2.20747 99.5208 -1.37301 18.9194 -6.62149 3.60425 -5.76484 -0.825838 0.44587 -1.11094 0.286711 -56.2409 -1.12587 80.5642 2.30879 13.8919 6.88018 -9.63614 -0.510921 1.393 1.89277 -7.46368 -10.2062 
-54.3608 97.8874 45.9427 -6.90483 -69.3815 -97.3977 -70.1915 0 88.8779 61.94 68.7858 27.5955 6.05007 20.5162 1.2088 -159.463 20.3468 177.918 -160.823 59.7246 -176.019 -0.0924662 -14.8801 -34.9806 -63.3445 43.869 -95.5922 8.19849 17.9006 -27.6829 0.420957 0.00057553 0.35866 -1.94464 6.40275 44.8183 -64.7531 -33.0025 97.5236 0.27183 -13.5255 22.4373 0.58676 0.000331038 0.0646652 -55.1711 2.21759 99.4924 -1.32975 18.981 -6.72486 3.51982 -5.64541 -0.813574 0.568826 -1.42128 0.400602 -56.2274 -1.05723 80.6139 2.29996 13.7893 6.67079 -9.75093 -0.583303 1.40692 1.86319 -7.40743 -9.92344 
-54.332 97.9068 45.917 -6.77862 -69.4365 -97.2895 -70.1915 0 88.8779 62.1944 68.8332 27.2145 5.9203 20.4893 1.30384 -159.321 20.3577 177.697 -160.436 59.6933 -176.362 -0.0618527 -14.7649 -34.9224 -63.429 43.9326 -95.6462 8.22345 18.0951 -27.6319 0.420957 0.00057553 0.35866 -1.94581 6.43141 44.7006 -64.6695 -33.1181 97.5973 0.23716 -13.4582 22.4309 0.58676 0.000331038 0.0646652 -55.2961 2.16709 99.5058 -1.33462 18.7905 -6.69997 3.48159 -5.65369 -0.810921 0.494982 -1.26691 0.415276 -56.1709 -1.22699 80.4553 2.41108 14.019 6.83399 -9.55534 -0.621987 1.38221 1.84665 -7.37468 -9.76689 
-54.355 97.8869 45.925 -6.91332 -69.44 -97.4999 -70.1915 0 88.8779 62.0668 68.8818 27.308 5.92446 20.5805 1.19818 -159.271 20.362 177.576 -160.361 59.6897 -176.396 -0.0719554 -14.8257 -34.8152 -63.2305 43.864 -95.7059 8.20835 17.9061 -27.6914 0.420957 0.00057553 0.35866 -1.94633 6.39088 44.8999 -64.6381 -33.0701 97.5472 0.290123 -13.3766 22.4821 0.58676 0.000331038 0.0646652 -55.3394 2.09633 99.4899 -1.3259 18.7523 -6.60367 3.54186 -5.82936 -0.824365 0.262973 -0.826937 0.564507 -56.224 -1.1859 80.5338 2.3103 13.9065 6.92322 -9.37011 -0.573903 1.35944 1.89026 -7.34848 -10.2213 
-54.3742 97.8986 45.9389 -6.93147 -69.4956 -97.5221 -70.1915 0 88.8779 62.3254 68.8989 27.0111 5.83544 20.5473 1.24112 -159.224 20.283 177.639 -160.246 59.6003 -176.437 -0.0917618 -14.8654 -35.0454 -63.2202 43.7318 -95.5004 8.30052 17.7882 -27.825 0.420957 0.00057553 0.35866 -1.9643 6.43737 44.9483 -64.589 -32.9968 97.5573 0.250969 -13.3175 22.4696 0.58676 0.000331038 0.0646652 -55.4516 2.15492 99.5302 -1.40727 18.6638 -6.45544 3.76724 -5.58265 -0.830141 0.61671 -1.30808 -0.152068 -56.1543 -1.20908 80.5247 2.3007 14.1747 6.85309 -9.57425 -0.735058 1.38416 1.88521 -7.29994 -10.1852 
-54.365 97.9029 45.925 -6.93864 -69.4874 -97.4942 -70.1915 0 88.8779 62.5228 68.9076 26.8838 5.74053 20.5345 1.23419 -159.189 20.3432 177.721 -160.357 59.6714 -176.348 -0.071943 -14.7961 -34.9798 -63.4979 43.812 -95.3663 8.33152 18.0576 -27.7473 0.420957 0.00057553 0.35866 -1.95927 6.44178 44.8525 -64.4484 -33.1687 97.6623 0.292083 -13.1723 22.5272 0.58676 0.000331038 0.0646652 -55.3689 2.18897 99.5255 -1.3861 18.8029 -6.48657 3.61278 -5.72738 -0.824874 0.441762 -1.02992 0.106499 -56.1587 -1.16307 80.5609 2.28733 14.1392 6.80628 -9.62451 -0.668278 1.39063 1.85853 -7.29573 -9.91682 
-54.3671 97.8853 45.9524 -6.76883 -69.4303 -97.3031 -70.1915 0 88.8779 61.9518 68.8034 27.4855 5.95289 20.5262 1.23337 -159.319 20.3605 177.908 -160.449 59.699 -176.349 -0.0955403 -14.8847 -35.0243 -63.1536 43.7567 -95.6473 8.20673 17.8188 -27.7242 0.420957 0.00057553 0.35866 -1.94174 6.44854 44.5597 -64.6262 -33.3192 97.6752 0.366686 -13.3791 22.5276 0.58676 0.000331038 0.0646652 -55.2575 2.14331 99.4636 -1.29403 18.886 -6.60463 3.45041 -5.75217 -0.813408 0.434332 -1.05243 0.204072 -56.1789 -1.13407 80.5827 2.29 13.9887 6.56602 -9.68369 -0.685254 1.39787 1.82576 -7.26494 -9.59511 
-54.3556 97.8954 45.9184 -6.70446 -69.4966 -97.2353 -70.1915 0 88.8779 62.4507 68.8701 26.9768 5.80893 20.5117 1.22142 -159.202 20.2812 177.678 -159.977 59.5696 -176.718 -0.0836582 -14.8429 -34.9867 -63.1512 43.717 -95.6848 8.18863 17.8543 -27.694 0.420957 0.00057553 0.35866 -1.94561 6.40605 44.8172 -64.3981 -33.0711 97.7799 0.443691 -13.5184 22.5603 0.58676 0.000331038 0.0646652 -55.3181 2.16202 99.4939 -1.33911 18.8712 -6.6997 3.66066 -5.53666 -0.819506 0.634016 -1.50878 0.265757 -56.2125 -1.17007 80.5488 2.29607 14.0437 6.46998 -9.47777 -0.719343 1.37232 1.79694 -7.15955 -9.35085 
-54.3648 97.8829 45.9199 -6.69842 -69.5279 -97.268 -70.1915 0 88.8779 62.5289 68.9043 26.7948 5.73179 20.5049 1.3038 -159.214 20.295 177.753 -160.265 59.6158 -176.399 -0.0796112 -14.8344 -34.9415 -63.0084 43.7375 -95.7385 8.20093 17.7767 -27.7378 0.420957 0.00057553 0.35866 -1.94722 6.42932 44.7314 -64.6686 -33.087 97.7033 0.431005 -13.9433 22.4644 0.58676 0.000331038 0.0646652 -55.3963 2.14249 99.5216 -1.37166 18.8057 -6.78337 3.53952 -5.75413 -0.820296 0.384829 -1.12135 0.643568 -56.2333 -1.24845 80.45 2.35734 14.1066 6.82269 -9.17671 -0.870187 1.33457 1.87951 -7.1436 -10.1858 
-54.3989 97.8883 45.9481 -6.9014 -69.5676 -97.5125 -70.1915 0 88.8779 62.427 68.9796 26.8631 5.77558 20.5749 1.35179 -159.269 20.3266 177.803 -160.326 59.6572 -176.323 -0.119421 -14.9762 -35.0574 -63.0159 43.7613 -95.6993 8.26993 17.8321 -27.7828 0.420957 0.00057553 0.35866 -1.93545 6.40219 44.6831 -64.9439 -33.1641 97.5801 0.423042 -14.195 22.4022 0.58676 0.000331038 0.0646652 -55.5079 2.15194 99.5364 -1.3989 18.7371 -6.45622 3.73995 -5.61201 -0.829355 0.619246 -1.30543 -0.17024 -56.2637 -1.23865 80.4887 2.31472 14.1502 6.80133 -9.41482 -0.934104 1.36366 1.86177 -7.10248 -10.0183 
-54.3663 97.9097 45.9381 -6.82061 -69.5368 -97.4525 -70.1915 0 88.8779 62.5665 68.9554 26.7976 5.6972 20.5662 1.254 -159.164 20.3346 177.746 -160.328 59.6641 -176.278 -0.0903788 -14.8848 -34.9073 -63.237 43.8989 -95.5636 8.27335 17.9118 -27.7516 0.420957 0.00057553 0.35866 -1.94437 6.45285 44.5787 -65.017 -33.3114 97.5802 0.359599 -14.0027 22.3944 0.58676 0.000331038 0.0646652 -55.488 2.06495 99.4973 -1.35473 18.6788 -6.65495 3.65665 -5.58281 -0.821595 0.471932 -1.17413 0.305115 -56.2234 -1.31587 80.4414 2.34426 14.1538 6.88117 -9.40537 -0.818195 1.36296 1.83413 -7.117 -9.73713 
-54.3706 97.8706 45.948 -6.75963 -69.4861 -97.4044 -70.1915 0 88.8779 62.4912 68.9461 26.9531 5.69255 20.597 1.1835 -159.172 20.3602 177.779 -160.444 59.6982 -176.246 -0.114934 -14.9654 -35.0166 -63.3553 43.8767 -95.4799 8.2975 18.0509 -27.721 0.420957 0.00057553 0.35866 -1.93664 6.44033 44.5219 -64.7376 -33.2469 97.7214 0.319519 -13.9277 22.3921 0.58676 0.000331038 0.0646652 -55.406 2.06717 99.4957 -1.36926 18.7266 -6.53636 3.4955 -5.82972 -0.820506 0.381789 -0.913637 0.140672 -56.2109 -1.29046 80.4869 2.31197 14.0673 6.63068 -9.29434 -0.921384 1.34887 1.81333 -7.02555 -9.5653 
-54.3861 97.8889 45.9427 -6.49837 -69.5432 -97.0752 -70.1915 0 88.8779 62.8906 68.9601 26.5309 5.61054 20.5306 1.23395 -159.109 20.3342 177.661 -160.412 59.6705 -176.185 -0.084059 -14.8808 -34.7869 -63.1594 43.9417 -95.6885 8.2981 18.0447 -27.7258 0.420957 0.00057553 0.35866 -1.93308 6.42845 44.5242 -64.4985 -33.1817 97.8953 0.192716 -13.7317 22.355 0.58676 0.000331038 0.0646652 -55.3982 2.13235 99.4877 -1.34367 18.785 -6.40091 3.6418 -5.82149 -0.83154 0.503871 -0.95003 -0.426682 -56.2511 -1.24002 80.5022 2.32123 14.1108 6.46206 -9.5465 -0.9395 1.37946 1.80264 -6.97611 -9.47905 
-54.3967 97.8904 45.9439 -6.61815 -69.5141 -97.1894 -70.1915 0 88.8779 62.7483 68.9637 26.5898 5.57713 20.503 1.42357 -159.135 20.3651 177.963 -160.829 59.7489 -175.703 -0.0850565 -14.8624 -34.9106 -63.0987 43.9402 -95.7183 8.25526 17.9391 -27.727 0.420957 0.00057553 0.35866 -1.94451 6.52235 44.2591 -64.5893 -33.3634 97.8807 0.106985 -13.5139 22.3374 0.58676 0.000331038 0.0646652 -55.3711 2.1811 99.5189 -1.38403 18.8342 -6.54623 3.55085 -5.77262 -0.822122 0.482952 -1.10378 0.0688949 -56.2504 -1.16472 80.5646 2.25078 14.0547 6.73158 -9.27447 -0.828641 1.34691 1.84948 -6.99758 -9.93488 
-54.4187 97.8916 45.9739 -6.85678 -69.5469 -97.4464 -70.1915 0 88.8779 62.5477 69.0153 26.7798 5.69961 20.5779 1.42184 -159.282 20.3482 178.048 -161.08 59.7522 -175.635 -0.120094 -15.0015 -34.9362 -62.9287 43.8148 -95.8051 8.22024 17.8818 -27.7191 0.420957 0.00057553 0.35866 -1.93151 6.4732 44.2927 -64.4583 -33.3343 97.9979 -0.0110175 -13.2321 22.3193 0.58676 0.000331038 0.0646652 -55.5026 2.16969 99.5221 -1.37025 18.693 -6.45849 3.62363 -5.47962 -0.813929 0.755055 -1.63306 -0.0937444 -56.3074 -1.17582 80.5329 2.30883 14.0204 6.5887 -9.77508 -0.828672 1.40801 1.80268 -6.91893 -9.50349 
-54.3995 97.8929 45.9564 -6.54809 -69.6161 -97.2083 -70.1915 0 88.8779 62.9887 69.0384 26.1811 5.53446 20.5005 1.50331 -159.173 20.3392 177.965 -160.896 59.7274 -175.694 -0.103984 -14.9296 -34.9679 -63.024 43.8021 -95.776 8.13065 18.0015 -27.5894 0.420957 0.00057553 0.35866 -1.94178 6.51651 44.2454 -64.7513 -33.3542 97.8697 0.055558 -13.5139 22.2981 0.58676 0.000331038 0.0646652 -55.6095 2.0243 99.4834 -1.32514 18.5725 -6.47466 3.6283 -5.53717 -0.817437 0.617734 -1.28705 -0.204105 -56.3755 -1.32345 80.4298 2.3481 14.0307 6.50375 -9.60126 -0.886896 1.38647 1.78747 -6.83248 -9.38782 
